# xmcd CD database file
#
# Track frame offsets:
#	182
#	16990
#	33217
#	48180
#	63407
#	79522
#	93690
#	109475
#	125707
#	145225
#	160202
#	177715
#	192095
#	208927
#	223627
#	239000
#
# Disc length: 3388 seconds
#
# Revision: 0
# Processed by: cddbd v1.4PL0 Copyright (c) Steve Scherf et al.
# Submitted via: Feurio! 1.66 - http://www.feurio.com
#
DISCID=ee0d3a10
DTITLE=Artwork By Harald Heinrichs - Die Grosse Stimmungsparade Vol 1
DYEAR=1900
DGENRE=
TTITLE0=An Der Nordseeküste
TTITLE1=Der Eiermann
TTITLE2=Bodo Mit Dem Bagger
TTITLE3=In Rio Da Ist Karneval
TTITLE4=Samba Im Tanga
TTITLE5=Da Steht Ein Pferd Auf Dem Flur
TTITLE6=Heute Schütt Ich Mich Zu
TTITLE7=Pump Ab Das Bier
TTITLE8=Volle Granate Renate
TTITLE9=Manta
TTITLE10=Ich Bin Der Martin, Ne
TTITLE11=Ding Ding Zack Zack
TTITLE12=In Unserer Kneipe
TTITLE13=Mich Kennt Keine Sau
TTITLE14=Millionen Frauen Lieben Mich
TTITLE15=Das Ganze Leben Ist Ein Quiz
EXTD=
EXTT0=
EXTT1=
EXTT2=
EXTT3=
EXTT4=
EXTT5=
EXTT6=
EXTT7=
EXTT8=
EXTT9=
EXTT10=
EXTT11=
EXTT12=
EXTT13=
EXTT14=
EXTT15=
PLAYORDER=
